<svg xmlns="http://www.w3.org/2000/svg" width="2000" height="2000" version="1.0" viewBox="0 0 810 1012.5"><defs><clipPath id="a"><path d="M.2 0h809.6v1012H.2Zm0 0"/></clipPath><clipPath id="b"><path d="M150.125 515.234H616v468.52H150.125Zm0 0"/></clipPath><clipPath id="c"><path d="M614 962h20.387v21H614Zm0 0"/></clipPath></defs><g fill="#fff" clip-path="url(#a)"><path d="M.2 0h1499.26v1499.258H.2Zm0 0"/><path d="M.2 0h1499.26v1499.258H.2Zm0 0"/></g><g clip-path="url(#b)"><path fill="#88aa9a" d="M377.281 516.219c-18.672 4.308-34.015 16.324-42.633 33.484-4.007 8.012-4.007 8.09-18.218 84.887-4.235 22.676-8.77 47.168-10.13 54.426l-2.495 13.226-2.797-5.82c-1.512-3.25-4.309-11.715-6.121-18.82-3.93-14.817-5.895-20.032-9.828-26.004-9.145-13.68-26.985-15.57-38.325-3.93-4.535 4.61-8.386 13.453-12.695 29.254-4.309 15.723-7.789 23.734-15.422 35.45-11.793 18.218-15.875 29.558-17.84 49.51-1.132 11.794-2.722 16.782-9.523 29.634-14.664 28.195-19.352 48.375-15.797 68.71 3.023 17.157 12.547 29.934 27.965 37.419 11.187 5.44 27.137 8.085 42.558 7.18l8.465-.454v56.766h-94.941l-3.324 1.664c-7.938 4.008-8.09 15.117-.301 19.652 2.266 1.285 11.336 1.363 218.379 1.363 212.101 0 216.035 0 218.379-1.437 3.324-2.117 4.988-5.293 4.988-9.676 0-4.762-2.117-8.238-6.273-10.055-2.95-1.359-5.22-1.511-34.32-1.511h-31.22v-40.59l16.176-.453c24.719-.832 46.489-2.723 62.063-5.594 5.441-.984 7.18-1.59 8.844-3.328 3.625-3.625 3.023-6.047-4.688-20.031-11.64-20.938-25.473-49.813-34.848-72.489l-4.382-10.582 2.796-.53c1.512-.302 4.762-.528 7.18-.528 5.52-.078 8.617-1.664 10.055-5.14 1.66-3.856.453-6.579-6.578-14.743-18.82-21.918-39.078-51.777-53.442-78.84-5.52-10.43-7.484-12.621-11.793-12.621s-6.199 1.812-10.203 9.824c-5.594 11.04-20.336 36.059-20.937 35.453-.078-.074-2.797-14.285-5.973-31.52s-7.031-38.55-8.691-47.245c-1.59-8.766-4.309-23.735-6.051-33.258-1.66-9.602-3.625-20.41-4.309-24.113-1.433-8.317-3.398-10.961-8.617-11.567-2.871-.3-3.777-.074-5.82 1.664-1.36 1.133-2.567 2.95-2.797 4.383-.375 2.27 10.36 62.816 26.683 150.047l2.196 11.566-5.672 7.332c-3.176 4.004-8.996 11.188-12.926 15.871-9.297 10.961-10.281 12.7-9.144 16.782 1.207 4.46 3.703 5.746 12.546 6.273 4.008.227 7.407.531 7.56.758.378.379-4.688 12.7-11.263 27.21-2.797 6.2-5.293 10.81-6.199 11.34-.984.528-9.601.907-23.207 1.134l-21.77.378v-38.476l22.376-22.223c12.625-12.547 22.902-23.355 23.433-24.718 2.266-5.215.38-10.731-4.687-13.606-6.88-4.004-9.75-2.418-26.91 14.742l-14.211 14.133v-42.48l19.277-18.747c10.656-10.28 19.879-19.73 20.558-21.015 1.817-3.625 1.06-9.824-1.664-12.621-3.097-3.176-7.027-4.309-11.109-3.102-2.644.832-5.594 3.25-15.117 12.778l-11.945 11.789v-43.086l14.816-14.664c14.437-14.286 16.934-17.461 16.934-21.543 0-2.871-2.57-7.407-5.067-8.766-6.348-3.629-9.676-2.57-18.898 6.121l-7.407 6.879-.378-26.305c-.38-25.703-.454-26.383-2.118-29.027-4.308-7.031-14.738-6.879-19.046.227-1.438 2.343-1.512 3.855-1.512 29.253v26.836l-7.711-7.636c-8.164-8.012-10.356-9.145-15.344-8.239-6.652 1.286-10.734 9.45-7.863 15.797.453.985 7.558 8.317 15.875 16.328l15.043 14.59v21.465c0 11.793-.227 21.469-.531 21.469-.301 0-3.625-3.176-7.332-7.106-3.778-3.855-9.524-9.523-12.7-12.472-5.668-5.215-5.894-5.367-9.75-5.367-4.761 0-8.312 1.964-10.054 5.593-1.512 3.176-1.586 7.41-.149 10.13.606 1.136 9.977 10.886 20.785 21.694l19.73 19.653v42.254l-15.269-15.192c-16.402-16.328-17.386-16.933-23.586-15.797-5.742 1.055-9.523 7.633-7.933 13.68.601 2.57 4.156 6.426 23.734 25.7l23.055 22.679v38.172l-12.625-.152-12.7-.227-.453-6.8c-1.058-14.743-5.14-26.99-16.023-48.153-7.41-14.59-8.316-17.387-9.602-29.707-1.511-14.59-4.23-24.793-9.222-34.621l-2.192-4.457 4.914-26.535c7.938-42.707 13-69.997 18.672-100.684 2.871-15.797 5.743-30.613 6.426-32.883 4.457-15.418 18.063-27.512 34.996-31.066 6.2-1.285 18.367-.528 24.64 1.664 14.97 4.988 26.231 17.914 29.481 33.484.606 3.25 1.512 6.578 1.965 7.41 1.059 1.887 5.14 4.383 7.336 4.383 2.645 0 5.895-2.191 7.406-4.914 1.133-2.117 1.133-2.95.301-7.633-2.418-13.152-8.39-24.566-17.762-34.015-7.18-7.184-13.984-11.414-23.812-14.743-6.652-2.265-8.012-2.492-18.52-2.718-7.632-.153-12.847.148-15.87.832M268.81 658.477c3.55 3.023 5.82 8.238 9.523 22.375 4.914 18.671 8.465 26.757 17.766 40.668 9.523 14.359 13.605 25.398 15.043 40.894 1.511 16.324 3.476 22.602 12.168 38.473 9.375 17.16 13.226 28.875 13.984 43.086 1.512 26.308-12.094 41.199-39.988 43.77-4.23.452-11.035.527-15.043.3l-7.407-.453v-16.781l20.485-20.485c18.594-18.594 20.484-20.71 20.863-23.433.758-5.973-5.367-11.036-11.262-9.371-1.738.527-6.578 4.835-16.253 14.511l-13.833 13.832v-61.226c0-57.903-.074-61.38-1.359-63.797-1.59-3.024-5.52-5.367-8.844-5.367-3.328 0-7.257 2.343-8.843 5.367-1.286 2.344-1.364 5.062-1.364 36.207v33.637l-8.086-8.09c-4.535-4.383-8.922-8.39-9.828-8.844-3.476-1.812-8.77-.3-11.11 3.102-1.589 2.265-1.515 7.253.227 10.05.754 1.285 7.559 8.243 15.118 15.496l13.68 13.23v29.481l-13.758-13.757c-11.79-11.72-14.286-13.758-16.782-14.211-3.703-.758-7.48.98-9.523 4.308-1.813 2.946-1.89 5.215-.453 8.012.605 1.133 9.976 10.887 20.789 21.695l19.726 19.653v17.16l-14.89-.38c-12.395-.226-15.875-.605-20.485-1.964-7.71-2.27-12.547-4.914-17.16-9.223-7.332-6.953-10.43-15.496-10.355-28.648 0-14.969 3.175-25.399 14.515-47.848 9.07-17.992 10.13-21.394 11.715-37.039 1.89-18.597 4.156-24.644 15.95-42.86 8.542-13.23 11.64-20.562 17.007-40.214 3.555-13.305 5.895-18.672 9.07-21.39 2.95-2.423 5.973-2.423 8.997.074m255.87 76.27c10.13 17.386 22.376 35.226 33.79 49.358 2.418 3.024 4.234 5.82 4.004 6.278-.301.375-.828.527-1.207.226-.453-.226-2.496-.226-4.614.075-5.289.754-8.16 3.55-8.16 7.937 0 7.027 21.086 55.406 37.946 87.152 4.761 8.997 6.5 13.004 5.894 13.383-2.117 1.285-28.344 3.477-51.172 4.23l-15.347.532v-41.879l11.265-10.883c6.195-6.047 11.64-11.945 12.168-13.23 1.965-4.836-1.285-10.504-6.726-11.715-3.024-.68-5.52.754-11.641 6.652l-5.067 4.914v-42.332l-2.57-2.57c-2.113-2.117-3.097-2.57-5.82-2.57-3.55.078-4.91.758-6.953 3.78-1.059 1.435-1.285 3.552-1.285 10.356 0 4.688-.227 8.54-.528 8.54-.226 0-2.422-1.887-4.84-4.157-3.55-3.402-4.836-4.156-7.03-4.156-5.364 0-8.766 3.324-8.766 8.543 0 3.398 2.343 6.422 12.773 16.777l8.39 8.317v27.21l-7.71-7.632c-9.45-9.297-10.657-10.13-14.664-10.13-5.29 0-8.618 4.384-7.559 10.056.379 1.886 3.703 5.668 15.195 17.156l14.739 14.742v14.211l-15.27-.531c-24.492-.832-52.383-3.324-52.383-4.61.074-.453 5.895-12.472 13-26.836 12.094-24.34 26.61-56.843 30.465-68.18 1.512-4.534 1.512-5.066.527-7.636-1.511-3.629-4.23-5.215-9.675-5.742l-4.536-.457 5.067-6.422c10.883-13.836 28.496-39.688 36.586-53.899 2.265-4.003 4.383-7.027 4.61-6.726.3.305 3.476 5.594 7.105 11.867M379.927 912.761v48.375h-105.07v-56.313l12.699-.074c14.136 0 22.148-1.21 31.972-4.84 15.422-5.594 27.29-17.387 31.676-31.37a65 65 0 0 1 1.281-3.626c.153-.305 6.426-.531 13.91-.531h13.532Zm59.715-47.848c0 .754-10.735 21.09-15.797 29.781-6.125 10.657-6.2 15.27-.227 18.367 4.535 2.344 41.195 5.973 69.918 6.954l15.649.53v40.59H402.602v-96.753h18.52c10.206 0 18.519.226 18.519.531m0 0"/></g><g clip-path="url(#c)"><path fill="#88aa9a" d="M619.016 964.16c-6.653 4.008-6.2 14.363.757 17.613 9.372 4.461 18.368-4.761 13.528-13.757-2.645-4.989-9.45-6.801-14.285-3.856m0 0"/></g></svg>