<svg xmlns="http://www.w3.org/2000/svg" width="2000" height="2000" version="1.0" viewBox="0 0 810 1012.5"><defs><clipPath id="a"><path d="M.2 0h809.6v1012H.2Zm0 0"/></clipPath><clipPath id="b"><path d="M150.125 579.352h659.676v340.332H150.125Zm0 0"/></clipPath></defs><g fill="#fff" clip-path="url(#a)"><path d="M.2 0h1499.26v1499.258H.2Zm0 0"/><path d="M.2 0h1499.26v1499.258H.2Zm0 0"/></g><g clip-path="url(#b)"><path fill="#88aa9a" fill-rule="evenodd" d="M251.156 841.25c1.7-14.285 14.625-15.39 38.774-3.148 4.68-10.032 10.886-13.606 18.625-10.63 55.183 87.075 109.86 56.887 126.953 92.434 6.715-3.66-4-22.789-8.762-26.957-25.508-21.683-49.656-51.36-72.531-88.86-9.95-29.76 64.2.513 79.164 38.266-2.211-23.214-13.008-53.656-32.395-91.41-4.336-46.511 103.227 117.176 117.43 109.438 10.203-60.883 111.305 43.535 124.828 55.781 1.613 1.02-89.797-160.031-43.965-107.312q25.003 28.7 61.989 32.398c-24.914-25.852-47.703-56.8-68.536-92.941-20.918-12.586-31.375-27.637-31.293-45.153-14.964-89.285 35.122 21.684 55.188 27.04 1.02-17.09-4.59-39.282-16.75-66.579-6.633-14.883-33.418-29.933-21.941-51.105 7.91-14.793 53.828 70.578 61.054 82.14 37.414 64.883 30.274-13.18 67.43 34.524-1.188 9.949-.68 19.898 1.617 29.761 17.008 21.516 36.649 43.114 59.012 64.797 5.273-.34-2.125-18.027-22.363-53.148 13.351-.254 25.765 2.043 37.16 6.89 51.953 78.485 88.773 116.919 110.543 115.301-35.121-53.398-70.832-101.953-107.313-145.574-15.984-.508-34.523-1.531-55.781-3.144-11.309-11.141-26.106-41.329-40.305-44.305-15.816-3.317-28.402-10.031-37.754-19.98-22.703-40.22-43.62-70.407-62.754-90.305-10.8-12.5-20.75-13.434-29.761-2.637-37.414 35.715-73.383 78.059-107.82 126.953q-20.408 35.46-38.266-5.355c-7.906-17.942-15.477-26.871-22.79-26.532q-36.859 48.981-83.417 103.059a464 464 0 0 1-39.88 8.504c-41.581 34.523-80.355 72.617-116.323 114.2 9.097 3.741 23.64-7.313 43.535-32.907q4.72 3.188 12.758 0c35.285-44.559 84.18 24.996 73.464-2.383q-3.697-9.311-28.824-31.121m0 0"/></g></svg>