<svg xmlns="http://www.w3.org/2000/svg" width="2000" height="2000" version="1.0" viewBox="0 0 810 1012.5"><defs><clipPath id="a"><path d="M.2 0h809.6v1012H.2Zm0 0"/></clipPath><clipPath id="b"><path d="M376 896h39v100.523h-39Zm0 0"/></clipPath><clipPath id="c"><path d="M375 502.516h39V602h-39Zm0 0"/></clipPath><clipPath id="d"><path d="M150.125 730H249v39h-98.875Zm0 0"/></clipPath><clipPath id="e"><path d="M541 729h99.383v39H541Zm0 0"/></clipPath></defs><g fill="#fff" clip-path="url(#a)"><path d="M.2 0h1499.26v1499.258H.2Zm0 0"/><path d="M.2 0h1499.26v1499.258H.2Zm0 0"/></g><path fill="#88aa9a" d="M528.18 749.504c-2.989 174.906-263.23 174.879-266.192-.004 2.989-174.898 263.23-174.871 266.192.004m-18.395.016c-2.574-150.77-226.914-150.743-229.465 0 2.575 150.765 226.914 150.742 229.465 0M500.824 919.64c-5.531 30.829 24.637 24.262 20.254 39.95-9.598 20.656-47.363-13.188-38.113-43.121 5.504-26.785-19.688-25.332-12.184-39.461 1.98-3.715 7.156-5.551 11.7-2.813 16.019 9.649 21.59 27.383 18.347 45.457h-.004Zm0 0"/><path fill="#88aa9a" d="M257.031 685.414c-21.324 1.004-33.558-17.644-40.289-35.21-10.508-22.13-31.5-5.477-34.183-20.298-.907-4.972 1.898-10.105 8.011-10.949 22.313-3.898 40.297 12.18 46.602 32.512 9.348 22.613 26.351 10.207 28.414 23.707.762 5.008-2.586 10.152-8.555 10.242ZM306.957 581.617c-6.16 27.996 20.992 25.606 12.563 39.996-2.883 4.91-8.872 5.469-14.25 1.684-15.079-10.613-19.633-28.344-15.563-46.086 6.543-28.547-21.516-22.676-19.371-38.11 6.418-20.847 46.742 9.352 36.617 42.52h.004ZM295.793 930.965c-19.242 10.055-3.574 30.633-15.742 34.144-4.106 1.184-9.176-.191-11.196-4.937-8.445-19.863 5.801-42 28.56-50.457 23.929-8.899 11.397-30.043 25.495-30.637 3.79-.16 8.063 2.324 8.527 7.594 2.641 22.937-17.101 36.219-35.656 44.297h.004Zm0 0"/><g clip-path="url(#b)"><path fill="#88aa9a" d="M400.465 953.133c-16.637 22.691 11.715 30.062-.63 41.222-4.362 3.95-10.32 2.723-13.944-1.75-18.223-22.355-6.727-42.257 8.015-61.843 8.328-12.496-7.511-26.504 3.594-32.739 4.133-2.32 9.46-1.09 12.047 3.88 11.297 21.699 2.754 35.09-9.082 51.234h-.004Zm0 0"/></g><g clip-path="url(#c)"><path fill="#88aa9a" d="M382.3 598.926c-26.1-38.051 29.81-52.801 8.204-82.227-2.906-4.187-1.649-9.414 1.34-12.09 2.988-2.675 8.683-3.117 11.87.551 14.294 16.438 12.407 39.262-1.991 55.09-17.832 19.59 3.59 32.82-7.293 39.934-2.496 1.629-8.825 3.175-12.13-1.262Zm0 0"/></g><path fill="#88aa9a" d="M532.98 668.984c-5.34 8.899-19.648 2.582-15.972-7.656 19.984-41.476 62.094.094 74.094-34.46 1.523-4.727 5.636-6.95 10.058-6.134 19.953 7.403-6.258 37.102-20.129 37.977-19.91 4.922-35.941-8.14-48.05 10.273M602.063 878.324c-52.227 8.735-38.235-42.687-68.512-46.648-4.77-.832-8.328-4.016-9.055-7.696-.875-4.449 1.45-10.793 7.469-10.882 20.547-.743 34.797 16.5 40.851 34.359 11.012 24.04 31.727 6.977 34.954 19.875 1.003 4.004.046 9.508-5.711 10.984h.004Zm0 0"/><g clip-path="url(#d)"><path fill="#88aa9a" d="M242.469 765.117c-17.235 7.512-34.313 2.254-47.293-9.21-21.653-19.13-32.45 9.925-42.395-.962-13.949-18.394 32.051-32.984 46.446-18.332l15.05 10.992c13.11 9.582 26.989-7.132 33.063 4.133 2.512 4.649 1.469 10.61-4.871 13.367Zm0 0"/></g><path fill="#88aa9a" d="M228.305 856.223c-31.77-5.848-24.715 22.691-39 20.55-4.621-.691-9.246-4.843-7.453-11.261 18.183-49.489 58.273-11.453 74.605-36.543 2.727-4.13 7.211-5.625 11.023-4.082 3.38 1.363 7.66 5.504 5.79 9.984-7.407 17.797-26.16 24.805-44.97 21.344h.005ZM486.328 591.797c-14.512 7.723-5.371 25.969-18.7 26.8-5.171.325-10.28-3.214-10.105-9.558.5-17.867 12.793-31.32 29.38-37.039 29.113-10.035 11.87-33.848 23.617-37.766 5.257-1.754 10.308.653 11.808 6.313 6.883 27.207-13.363 42.332-36.004 51.25Zm0 0"/><g clip-path="url(#e)"><path fill="#88aa9a" d="M639.367 754.719c-19.773 23.445-45.027 10.84-64.562-4.18-13.422-8.816-24.461 6.438-31.22-3.48-10.784-21.309 34.485-21 44.544-9.79 11.496 8.45 22.586 19.508 37.746 7.145 7.45-6.93 18.543 1.7 13.492 10.309Zm0 0"/></g></svg>