<svg xmlns="http://www.w3.org/2000/svg" width="2000" height="2000" version="1.0" viewBox="0 0 810 1012.5"><defs><clipPath id="a"><path d="M.2 0h809.6v1012H.2Zm0 0"/></clipPath><clipPath id="b"><path d="M150.125 882h470.77v75h-470.77Zm0 0"/></clipPath><clipPath id="c"><path d="M152 784h468.895v106H152Zm0 0"/></clipPath><clipPath id="d"><path d="M150.125 768H494v59H150.125Zm0 0"/></clipPath><clipPath id="e"><path d="M278 542.508h17V573h-17Zm0 0"/></clipPath></defs><g fill="#fff" clip-path="url(#a)"><path d="M.2 0h1499.26v1499.258H.2Zm0 0"/><path d="M.2 0h1499.26v1499.258H.2Zm0 0"/></g><g clip-path="url(#b)"><path fill="#88aa9a" d="M178.95 956.64c-7.68 0-15.044-.632-22.196-2-4.418-.84-7.258-5.046-6.418-9.464.844-4.418 5.05-7.258 9.469-6.418 33.87 6.523 77.312-6.625 127.593-21.774 92.145-27.875 206.907-62.484 329.243 5.047 3.89 2.106 5.363 7.051 3.152 10.942-2.102 3.89-7.047 5.363-10.938 3.156-116.445-64.27-227.523-30.715-316.722-3.684-42.602 12.836-80.262 24.196-113.184 24.196m0 0"/></g><g clip-path="url(#c)"><path fill="#88aa9a" d="M164.012 889.738c.105-.101.21-.207.21-.207l-11.992-10.836c3.051-3.261 33.133-31.87 167.04-22.824 57.75 3.89 122.44-26.09 169.773-48.074 45.129-20.934 65.957-24.824 123.809-23.246 4.418.105 7.996 3.785 7.89 8.308a8.063 8.063 0 0 1-8.101 7.891h-.211c-55.328-1.578-73.84 1.895-116.547 21.668-45.863 21.25-107.504 49.86-166.094 49.86-3.89 0-7.68-.106-11.57-.419-125.703-8.418-153.89 17.567-154.207 17.88m0 0"/></g><g clip-path="url(#d)"><path fill="#88aa9a" d="M485.469 826.418a8 8 0 0 1-2.211-.316l-8.52-2.422c-103.715-29.453-245.718-69.739-310.62-.418-3.052 3.261-8.208 3.468-11.466.316-3.261-3.05-3.472-8.207-.316-11.469 71.633-76.472 219.11-34.605 326.82-3.996l8.52 2.418c4.312 1.266 6.84 5.684 5.578 9.996-1.055 3.575-4.313 5.891-7.785 5.891m0 0"/></g><path fill="#88aa9a" d="M458.96 818.95c-4.312 0-7.89-3.368-8.1-7.68-3.048-63.957-60.903-114.024-131.696-114.024-65.848 0-122.02 44.387-130.644 103.293-.63 4.418-4.735 7.469-9.153 6.84-4.418-.633-7.469-4.734-6.836-9.152 4.735-32.293 22.196-61.957 49.125-83.52 26.926-21.672 61.64-33.559 97.508-33.559 38.29 0 74.578 13.254 102.242 37.45 27.774 24.297 43.973 56.906 45.653 91.933.21 4.418-3.258 8.207-7.676 8.418zm0 0"/><path fill="#88aa9a" d="M587.082 800.434c-3.684 0-6.945-2.524-7.89-6.207-11.782-50.7-66.27-87.516-129.489-87.516-18.723 0-36.71 3.156-53.644 9.258-4.207 1.578-8.836-.633-10.309-4.84-1.578-4.207.629-8.836 4.836-10.309 18.726-6.836 38.605-10.308 59.223-10.308 70.687 0 131.8 42.074 145.265 99.93 1.055 4.312-1.683 8.73-5.996 9.675-.84.317-1.473.317-1.996.317M239.223 819.578h-21.04c-4.417 0-8.101-3.574-8.101-8.098 0-4.523 3.578-8.101 8.102-8.101h21.039c4.418 0 8.097 3.578 8.097 8.101s-3.68 8.098-8.097 8.098M310.223 837.988h-21.036c-4.417 0-8.101-3.578-8.101-8.101s3.578-8.098 8.101-8.098h21.036c4.418 0 8.101 3.574 8.101 8.098 0 4.523-3.683 8.101-8.101 8.101M371.234 824.84h-21.039c-4.418 0-8.097-3.578-8.097-8.102 0-4.523 3.574-8.097 8.097-8.097h21.04c4.417 0 8.097 3.574 8.097 8.097 0 4.524-3.68 8.102-8.098 8.102M227.648 921.086h-21.035c-4.418 0-8.101-3.574-8.101-8.098 0-4.523 3.578-8.101 8.101-8.101h21.035c4.418 0 8.102 3.578 8.102 8.101s-3.684 8.098-8.102 8.098M598.969 834.832h-21.04c-4.417 0-8.1-3.578-8.1-8.102 0-4.523 3.577-8.097 8.1-8.097h21.04c4.418 0 8.097 3.574 8.097 8.097 0 4.524-3.68 8.102-8.097 8.102M581.61 875.855h-21.036c-4.418 0-8.101-3.578-8.101-8.101s3.578-8.098 8.101-8.098h21.035c4.418 0 8.102 3.574 8.102 8.098 0 4.523-3.684 8.101-8.102 8.101M509.031 863.23h-21.039c-4.418 0-8.097-3.574-8.097-8.097 0-4.524 3.574-8.098 8.097-8.098h21.04c4.417 0 8.097 3.574 8.097 8.098 0 4.523-3.68 8.097-8.098 8.097M536.168 652.012h-69.633c-14.726 0-26.613-11.992-26.613-26.614 0-8.097 3.68-15.671 9.781-20.617a28 28 0 0 1-.316-4.207c0-14.726 11.992-26.613 26.613-26.613 6.629 0 12.73 2.422 17.46 6.523 4.946-6.73 12.731-10.836 21.462-10.836 14.726 0 26.613 11.993 26.613 26.614 0 1.054-.105 2.105-.21 3.05 12.202 2.422 21.35 13.254 21.35 26.086.106 14.622-11.78 26.614-26.507 26.614M476 590.059c-5.785 0-10.414 4.73-10.414 10.41q0 2.366.95 4.418c.944 2 1.05 4.21.21 6.312-.738 2-2.316 3.684-4.312 4.524-3.79 1.683-6.313 5.468-6.313 9.574 0 5.785 4.734 10.41 10.414 10.41h69.633c5.785 0 10.414-4.73 10.414-10.41 0-5.684-4.734-10.414-10.414-10.414-1.367 0-2.734.312-3.996.84-3.473 1.472-7.469.316-9.676-2.735-2.21-3.05-2-7.152.418-9.992 1.578-1.894 2.527-4.312 2.527-6.84 0-5.785-4.734-10.414-10.414-10.414-4.84 0-9.047 3.262-10.203 7.996-.738 2.84-2.84 5.051-5.68 5.89-.738.212-1.472.528-2.21.946-2 1.16-4.418 1.262-6.52.528-2.21-.739-3.894-2.418-4.84-4.524-1.472-3.996-5.262-6.52-9.574-6.52M286.242 638.758c-17.254 0-31.242-13.988-31.242-31.238 0-17.254 13.988-31.243 31.242-31.243 17.25 0 31.238 13.989 31.238 31.243 0 17.25-13.988 31.238-31.238 31.238m0-46.387c-8.312 0-15.148 6.836-15.148 15.149 0 8.308 6.836 15.144 15.148 15.144 8.309 0 15.145-6.836 15.145-15.144 0-8.313-6.836-15.149-15.145-15.149m0 0"/><g clip-path="url(#e)"><path fill="#88aa9a" d="M286.242 572.488c-4.418 0-8.101-3.574-8.101-8.097v-13.676c0-4.418 3.578-8.098 8.101-8.098 4.52 0 8.098 3.574 8.098 8.098v13.676c0 4.418-3.68 8.097-8.098 8.097m0 0"/></g><path fill="#88aa9a" d="M316.746 585.113c-2.105 0-4.101-.843-5.68-2.316-3.156-3.152-3.156-8.309 0-11.465l9.676-9.676c3.156-3.156 8.309-3.156 11.465 0s3.156 8.309 0 11.465l-9.676 9.676c-1.683 1.473-3.683 2.316-5.785 2.316M343.043 615.512h-13.676c-4.418 0-8.097-3.574-8.097-8.098 0-4.523 3.574-8.101 8.097-8.101h13.676c4.418 0 8.098 3.578 8.098 8.101s-3.68 8.098-8.098 8.098M326.422 655.695c-2.102 0-4.102-.843-5.68-2.316l-9.676-9.676c-3.156-3.156-3.156-8.308 0-11.465 3.153-3.156 8.309-3.156 11.465 0l9.676 9.676c3.156 3.156 3.156 8.313 0 11.465a8.47 8.47 0 0 1-5.785 2.316M286.242 672.313c-4.418 0-8.101-3.575-8.101-8.098v-13.676c0-4.418 3.578-8.098 8.101-8.098 4.52 0 8.098 3.575 8.098 8.098v13.676c0 4.523-3.68 8.097-8.098 8.097M246.059 655.695c-2.106 0-4.102-.843-5.68-2.316-3.156-3.152-3.156-8.309 0-11.465l9.676-9.676c3.156-3.156 8.312-3.156 11.465 0 3.156 3.157 3.156 8.309 0 11.465l-9.676 9.676c-1.684 1.578-3.684 2.316-5.785 2.316M243.113 615.512h-13.675c-4.418 0-8.098-3.574-8.098-8.098 0-4.523 3.574-8.101 8.097-8.101h13.676c4.418 0 8.098 3.578 8.098 8.101s-3.68 8.098-8.098 8.098M255.734 585.113c-2.101 0-4.101-.843-5.68-2.316l-9.675-9.676c-3.156-3.156-3.156-8.308 0-11.465s8.309-3.156 11.465 0l9.676 9.676c3.156 3.156 3.156 8.313 0 11.465-1.68 1.473-3.68 2.316-5.786 2.316m0 0"/></svg>