<svg xmlns="http://www.w3.org/2000/svg" width="2000" height="2000" version="1.0" viewBox="0 0 810 1012.5"><defs><clipPath id="a"><path d="M.2 0h809.6v1012H.2Zm0 0"/></clipPath><clipPath id="b"><path d="M315 509.813h18V566h-18Zm0 0"/></clipPath><clipPath id="c"><path d="M269 896h38v93.574h-38Zm0 0"/></clipPath><clipPath id="d"><path d="M347 896h39v93.574h-39Zm0 0"/></clipPath><clipPath id="e"><path d="M426 896h38v93.574h-38Zm0 0"/></clipPath><clipPath id="f"><path d="M504 896h38v93.574h-38Zm0 0"/></clipPath></defs><g fill="#fff" clip-path="url(#a)"><path d="M.2 0h1499.26v1499.258H.2Zm0 0"/><path d="M.2 0h1499.26v1499.258H.2Zm0 0"/></g><path fill="#88aa9a" fill-rule="evenodd" d="M518.492 880.29H292.605c-41.632 0-75.671-33.759-75.671-75.392 0-32.91 21.382-61.886 51.761-72.011-.28-3.094-.562-6.469-.562-10.13 0-41.632 34.039-75.667 75.672-75.667 28.41 0 54.007 15.754 66.949 40.226 11.812-7.035 25.316-10.691 39.383-10.691 17.16 0 34.035 5.91 47.539 16.879 11.254 9.281 19.691 21.66 24.191 35.445 40.227 1.688 72.297 35.16 72.297 75.95 0 41.632-33.758 75.39-75.672 75.39M343.805 663.968c-32.352 0-58.793 26.441-58.793 58.789 0 5.347.562 9.847 1.687 14.066.563 2.25.281 4.781-.844 6.75-1.406 1.973-3.375 3.098-5.625 3.66-26.726 5.907-46.418 30.098-46.418 57.664 0 32.352 26.446 58.512 58.793 58.512h225.887c32.633 0 58.793-26.16 58.793-58.512 0-32.628-26.16-59.07-58.793-59.07h-.844c-2.25.563-4.5.281-6.468-1.125-1.97-1.129-3.375-3.098-3.938-5.348-5.91-27.003-29.539-45.851-57.105-45.851-13.785 0-27.004 4.781-37.414 13.223-2.25 1.687-5.063 2.25-7.594 1.687-2.813-.844-4.785-2.812-5.91-5.344-8.156-23.351-30.38-39.101-55.414-39.101m0 0"/><path fill="#88aa9a" fill-rule="evenodd" d="M412.16 778.738c-1.406 0-2.812-.281-3.937-1.125-20.536-10.406-30.946-34.32-25.036-56.543 2.813-11.25 9.563-20.816 19.41-27.847 3.657-2.532 9-1.688 11.532 2.25 2.812 3.656 1.969 9.004-1.969 11.816-6.469 4.5-10.691 10.688-12.66 18.004-3.937 14.906 3.098 30.379 16.598 37.41 3.937 2.254 5.625 7.317 3.375 11.535-1.407 2.813-4.22 4.5-7.313 4.5M315.11 789.43c-.844 0-1.688-.282-2.532-.563-4.5-1.406-7.031-5.91-5.625-10.41 3.375-10.969-1.125-22.785-10.973-28.129-5.062-2.812-10.687-3.937-15.75-3.094-4.503 1.125-9.003-1.968-9.847-6.472-1.125-4.5 1.969-9 6.469-10.125 9.003-1.688 19.128 0 27.57 5.062 16.598 9.285 24.473 29.54 18.848 47.82-1.125 3.66-4.504 5.91-8.16 5.91M281.918 704.477c-1.969 0-3.941-.844-5.629-2.254-15.469-13.782-24.473-33.473-24.473-54.29 0-39.663 32.352-72.296 72.297-72.296s72.293 32.633 72.293 72.297c0 8.437-1.406 16.597-3.937 23.91-1.406 4.5-6.188 6.75-10.688 5.062-4.504-1.406-6.754-6.187-5.066-10.687a60.9 60.9 0 0 0 2.812-18.285c0-30.383-24.754-55.418-55.414-55.418-30.664 0-55.418 25.035-55.418 55.418 0 15.754 7.032 31.222 18.848 41.914 3.375 3.093 3.937 8.437.844 11.812-1.688 1.973-4.219 2.817-6.469 2.817m0 0"/><g clip-path="url(#b)"><path fill="#88aa9a" fill-rule="evenodd" d="M324.113 565.793c-4.785 0-8.441-3.656-8.441-8.441v-39.098c0-4.785 3.656-8.442 8.441-8.442 4.782 0 8.438 3.657 8.438 8.442v39.098c0 4.785-3.656 8.441-8.438 8.441m0 0"/></g><path fill="#88aa9a" fill-rule="evenodd" d="M278.82 577.887c-2.812 0-5.625-1.407-7.312-4.219l-19.692-34.035c-2.25-3.942-.843-9.004 3.094-11.535 4.223-2.25 9.285-.844 11.535 3.093l19.692 34.04c2.25 4.218 1.125 9.28-3.094 11.53-1.406.844-2.813 1.126-4.223 1.126M245.629 611.082c-1.406 0-2.813-.281-4.219-1.125l-34.039-19.691c-3.937-2.25-5.344-7.313-3.094-11.536 2.532-3.937 7.594-5.343 11.532-3.093l34.039 19.691c4.218 2.531 5.625 7.598 3.093 11.535-1.406 2.813-4.218 4.219-7.312 4.219M233.25 656.371h-39.102c-4.5 0-8.437-3.656-8.437-8.437 0-4.5 3.937-8.442 8.437-8.442h39.102c4.785 0 8.441 3.942 8.441 8.442 0 4.78-3.656 8.437-8.441 8.437M211.59 721.633c-2.813 0-5.625-1.406-7.313-4.219-2.25-3.937-.843-9.281 3.094-11.531l34.04-19.692c4.218-2.25 9.28-.843 11.53 3.094 2.532 3.938 1.125 9.281-3.093 11.531l-34.04 19.692c-1.124.844-2.812 1.125-4.218 1.125M454.355 656.371h-39.382c-4.782 0-8.438-3.656-8.438-8.437 0-4.5 3.656-8.442 8.438-8.442h39.382c4.5 0 8.438 3.942 8.438 8.442 0 4.78-3.938 8.437-8.438 8.437M402.879 611.082c-3.098 0-5.91-1.406-7.317-4.219-2.25-3.937-1.125-9.004 3.094-11.535l34.04-19.691c3.937-2.25 9-.844 11.534 3.093 2.25 4.223.844 9.286-3.097 11.536l-34.035 19.691c-1.407.844-2.813 1.125-4.22 1.125M369.684 577.887c-1.407 0-2.813-.282-4.22-1.125-3.937-2.25-5.347-7.313-3.093-11.25l19.41-34.04c2.25-4.218 7.313-5.624 11.531-3.374 3.938 2.53 5.344 7.593 3.094 11.535l-19.41 34.035c-1.687 2.812-4.5 4.219-7.312 4.219m0 0"/><g clip-path="url(#c)"><path fill="#88aa9a" fill-rule="evenodd" d="M277.695 989.434c-.562 0-1.406 0-2.25-.282-4.5-1.125-7.03-5.906-5.906-10.406l20.254-75.953c1.125-4.5 5.906-7.313 10.41-6.188 4.5 1.407 7.031 5.907 5.906 10.407l-20.254 76.234c-.843 3.656-4.5 6.188-8.16 6.188m0 0"/></g><g clip-path="url(#d)"><path fill="#88aa9a" fill-rule="evenodd" d="M356.18 989.434c-.844 0-1.407 0-2.25-.282-4.5-1.125-7.032-5.906-5.907-10.406l20.536-75.953c1.125-4.5 5.906-7.313 10.406-6.188 4.504 1.407 7.035 5.907 5.91 10.407l-20.535 76.234c-1.125 3.656-4.504 6.188-8.16 6.188m0 0"/></g><g clip-path="url(#e)"><path fill="#88aa9a" fill-rule="evenodd" d="M434.664 989.434c-.844 0-1.406 0-2.25-.282-4.5-1.125-7.312-5.906-5.906-10.406l20.535-75.953c1.125-4.5 5.625-7.313 10.125-6.188 4.5 1.407 7.316 5.907 6.187 10.407l-20.535 76.234c-1.125 3.656-4.5 6.188-8.156 6.188m0 0"/></g><g clip-path="url(#f)"><path fill="#88aa9a" fill-rule="evenodd" d="M513.148 989.434c-.843 0-1.687 0-2.25-.282-4.5-1.125-7.316-5.906-5.906-10.406l20.25-75.953c1.41-4.5 5.91-7.313 10.41-6.188 4.5 1.407 7.313 5.907 5.907 10.407l-20.536 76.234c-.843 3.656-4.218 6.188-7.875 6.188m0 0"/></g></svg>